%TF.GenerationSoftware,KiCad,Pcbnew,9.0.1-9.0.1-0~ubuntu24.04.1*%
%TF.CreationDate,2025-05-06T21:30:47+02:00*%
%TF.ProjectId,led,6c65642e-6b69-4636-9164-5f7063625858,rev?*%
%TF.SameCoordinates,Original*%
%TF.FileFunction,Legend,Bot*%
%TF.FilePolarity,Positive*%
%FSLAX46Y46*%
G04 Gerber Fmt 4.6, Leading zero omitted, Abs format (unit mm)*
G04 Created by KiCad (PCBNEW 9.0.1-9.0.1-0~ubuntu24.04.1) date 2025-05-06 21:30:47*
%MOMM*%
%LPD*%
G01*
G04 APERTURE LIST*
%ADD10C,0.087500*%
%ADD11C,0.150000*%
%ADD12C,0.120000*%
G04 APERTURE END LIST*
D10*
X42842435Y-44709783D02*
X42675768Y-45409783D01*
X42675768Y-45409783D02*
X42542435Y-44909783D01*
X42542435Y-44909783D02*
X42409101Y-45409783D01*
X42409101Y-45409783D02*
X42242435Y-44709783D01*
X41675768Y-45409783D02*
X41675768Y-45043116D01*
X41675768Y-45043116D02*
X41709101Y-44976450D01*
X41709101Y-44976450D02*
X41775768Y-44943116D01*
X41775768Y-44943116D02*
X41909101Y-44943116D01*
X41909101Y-44943116D02*
X41975768Y-44976450D01*
X41675768Y-45376450D02*
X41742435Y-45409783D01*
X41742435Y-45409783D02*
X41909101Y-45409783D01*
X41909101Y-45409783D02*
X41975768Y-45376450D01*
X41975768Y-45376450D02*
X42009101Y-45309783D01*
X42009101Y-45309783D02*
X42009101Y-45243116D01*
X42009101Y-45243116D02*
X41975768Y-45176450D01*
X41975768Y-45176450D02*
X41909101Y-45143116D01*
X41909101Y-45143116D02*
X41742435Y-45143116D01*
X41742435Y-45143116D02*
X41675768Y-45109783D01*
X41342435Y-45409783D02*
X41342435Y-44943116D01*
X41342435Y-45076450D02*
X41309102Y-45009783D01*
X41309102Y-45009783D02*
X41275768Y-44976450D01*
X41275768Y-44976450D02*
X41209102Y-44943116D01*
X41209102Y-44943116D02*
X41142435Y-44943116D01*
X41009102Y-44943116D02*
X40742435Y-44943116D01*
X40909102Y-44709783D02*
X40909102Y-45309783D01*
X40909102Y-45309783D02*
X40875769Y-45376450D01*
X40875769Y-45376450D02*
X40809102Y-45409783D01*
X40809102Y-45409783D02*
X40742435Y-45409783D01*
X40575769Y-44943116D02*
X40209102Y-44943116D01*
X40209102Y-44943116D02*
X40575769Y-45409783D01*
X40575769Y-45409783D02*
X40209102Y-45409783D01*
X39675768Y-45376450D02*
X39742435Y-45409783D01*
X39742435Y-45409783D02*
X39875768Y-45409783D01*
X39875768Y-45409783D02*
X39942435Y-45376450D01*
X39942435Y-45376450D02*
X39975768Y-45309783D01*
X39975768Y-45309783D02*
X39975768Y-45043116D01*
X39975768Y-45043116D02*
X39942435Y-44976450D01*
X39942435Y-44976450D02*
X39875768Y-44943116D01*
X39875768Y-44943116D02*
X39742435Y-44943116D01*
X39742435Y-44943116D02*
X39675768Y-44976450D01*
X39675768Y-44976450D02*
X39642435Y-45043116D01*
X39642435Y-45043116D02*
X39642435Y-45109783D01*
X39642435Y-45109783D02*
X39975768Y-45176450D01*
X39342435Y-45409783D02*
X39342435Y-44709783D01*
X39275768Y-45143116D02*
X39075768Y-45409783D01*
X39075768Y-44943116D02*
X39342435Y-45209783D01*
X38742435Y-45376450D02*
X38742435Y-45409783D01*
X38742435Y-45409783D02*
X38775768Y-45476450D01*
X38775768Y-45476450D02*
X38809101Y-45509783D01*
X37942435Y-44776450D02*
X37909102Y-44743116D01*
X37909102Y-44743116D02*
X37842435Y-44709783D01*
X37842435Y-44709783D02*
X37675769Y-44709783D01*
X37675769Y-44709783D02*
X37609102Y-44743116D01*
X37609102Y-44743116D02*
X37575769Y-44776450D01*
X37575769Y-44776450D02*
X37542435Y-44843116D01*
X37542435Y-44843116D02*
X37542435Y-44909783D01*
X37542435Y-44909783D02*
X37575769Y-45009783D01*
X37575769Y-45009783D02*
X37975769Y-45409783D01*
X37975769Y-45409783D02*
X37542435Y-45409783D01*
X37109102Y-44709783D02*
X37042435Y-44709783D01*
X37042435Y-44709783D02*
X36975768Y-44743116D01*
X36975768Y-44743116D02*
X36942435Y-44776450D01*
X36942435Y-44776450D02*
X36909102Y-44843116D01*
X36909102Y-44843116D02*
X36875768Y-44976450D01*
X36875768Y-44976450D02*
X36875768Y-45143116D01*
X36875768Y-45143116D02*
X36909102Y-45276450D01*
X36909102Y-45276450D02*
X36942435Y-45343116D01*
X36942435Y-45343116D02*
X36975768Y-45376450D01*
X36975768Y-45376450D02*
X37042435Y-45409783D01*
X37042435Y-45409783D02*
X37109102Y-45409783D01*
X37109102Y-45409783D02*
X37175768Y-45376450D01*
X37175768Y-45376450D02*
X37209102Y-45343116D01*
X37209102Y-45343116D02*
X37242435Y-45276450D01*
X37242435Y-45276450D02*
X37275768Y-45143116D01*
X37275768Y-45143116D02*
X37275768Y-44976450D01*
X37275768Y-44976450D02*
X37242435Y-44843116D01*
X37242435Y-44843116D02*
X37209102Y-44776450D01*
X37209102Y-44776450D02*
X37175768Y-44743116D01*
X37175768Y-44743116D02*
X37109102Y-44709783D01*
X36609101Y-44776450D02*
X36575768Y-44743116D01*
X36575768Y-44743116D02*
X36509101Y-44709783D01*
X36509101Y-44709783D02*
X36342435Y-44709783D01*
X36342435Y-44709783D02*
X36275768Y-44743116D01*
X36275768Y-44743116D02*
X36242435Y-44776450D01*
X36242435Y-44776450D02*
X36209101Y-44843116D01*
X36209101Y-44843116D02*
X36209101Y-44909783D01*
X36209101Y-44909783D02*
X36242435Y-45009783D01*
X36242435Y-45009783D02*
X36642435Y-45409783D01*
X36642435Y-45409783D02*
X36209101Y-45409783D01*
X35575768Y-44709783D02*
X35909101Y-44709783D01*
X35909101Y-44709783D02*
X35942434Y-45043116D01*
X35942434Y-45043116D02*
X35909101Y-45009783D01*
X35909101Y-45009783D02*
X35842434Y-44976450D01*
X35842434Y-44976450D02*
X35675768Y-44976450D01*
X35675768Y-44976450D02*
X35609101Y-45009783D01*
X35609101Y-45009783D02*
X35575768Y-45043116D01*
X35575768Y-45043116D02*
X35542434Y-45109783D01*
X35542434Y-45109783D02*
X35542434Y-45276450D01*
X35542434Y-45276450D02*
X35575768Y-45343116D01*
X35575768Y-45343116D02*
X35609101Y-45376450D01*
X35609101Y-45376450D02*
X35675768Y-45409783D01*
X35675768Y-45409783D02*
X35842434Y-45409783D01*
X35842434Y-45409783D02*
X35909101Y-45376450D01*
X35909101Y-45376450D02*
X35942434Y-45343116D01*
X41342435Y-49582822D02*
X41175768Y-50282822D01*
X41175768Y-50282822D02*
X41042435Y-49782822D01*
X41042435Y-49782822D02*
X40909101Y-50282822D01*
X40909101Y-50282822D02*
X40742435Y-49582822D01*
X40175768Y-50282822D02*
X40175768Y-49916155D01*
X40175768Y-49916155D02*
X40209101Y-49849489D01*
X40209101Y-49849489D02*
X40275768Y-49816155D01*
X40275768Y-49816155D02*
X40409101Y-49816155D01*
X40409101Y-49816155D02*
X40475768Y-49849489D01*
X40175768Y-50249489D02*
X40242435Y-50282822D01*
X40242435Y-50282822D02*
X40409101Y-50282822D01*
X40409101Y-50282822D02*
X40475768Y-50249489D01*
X40475768Y-50249489D02*
X40509101Y-50182822D01*
X40509101Y-50182822D02*
X40509101Y-50116155D01*
X40509101Y-50116155D02*
X40475768Y-50049489D01*
X40475768Y-50049489D02*
X40409101Y-50016155D01*
X40409101Y-50016155D02*
X40242435Y-50016155D01*
X40242435Y-50016155D02*
X40175768Y-49982822D01*
X39942435Y-49816155D02*
X39675768Y-49816155D01*
X39842435Y-49582822D02*
X39842435Y-50182822D01*
X39842435Y-50182822D02*
X39809102Y-50249489D01*
X39809102Y-50249489D02*
X39742435Y-50282822D01*
X39742435Y-50282822D02*
X39675768Y-50282822D01*
X39175768Y-50249489D02*
X39242435Y-50282822D01*
X39242435Y-50282822D02*
X39375768Y-50282822D01*
X39375768Y-50282822D02*
X39442435Y-50249489D01*
X39442435Y-50249489D02*
X39475768Y-50182822D01*
X39475768Y-50182822D02*
X39475768Y-49916155D01*
X39475768Y-49916155D02*
X39442435Y-49849489D01*
X39442435Y-49849489D02*
X39375768Y-49816155D01*
X39375768Y-49816155D02*
X39242435Y-49816155D01*
X39242435Y-49816155D02*
X39175768Y-49849489D01*
X39175768Y-49849489D02*
X39142435Y-49916155D01*
X39142435Y-49916155D02*
X39142435Y-49982822D01*
X39142435Y-49982822D02*
X39475768Y-50049489D01*
X38842435Y-50282822D02*
X38842435Y-49816155D01*
X38842435Y-49949489D02*
X38809102Y-49882822D01*
X38809102Y-49882822D02*
X38775768Y-49849489D01*
X38775768Y-49849489D02*
X38709102Y-49816155D01*
X38709102Y-49816155D02*
X38642435Y-49816155D01*
X38409102Y-50282822D02*
X38409102Y-49816155D01*
X38409102Y-49882822D02*
X38375769Y-49849489D01*
X38375769Y-49849489D02*
X38309102Y-49816155D01*
X38309102Y-49816155D02*
X38209102Y-49816155D01*
X38209102Y-49816155D02*
X38142435Y-49849489D01*
X38142435Y-49849489D02*
X38109102Y-49916155D01*
X38109102Y-49916155D02*
X38109102Y-50282822D01*
X38109102Y-49916155D02*
X38075769Y-49849489D01*
X38075769Y-49849489D02*
X38009102Y-49816155D01*
X38009102Y-49816155D02*
X37909102Y-49816155D01*
X37909102Y-49816155D02*
X37842435Y-49849489D01*
X37842435Y-49849489D02*
X37809102Y-49916155D01*
X37809102Y-49916155D02*
X37809102Y-50282822D01*
X37209102Y-50249489D02*
X37275769Y-50282822D01*
X37275769Y-50282822D02*
X37409102Y-50282822D01*
X37409102Y-50282822D02*
X37475769Y-50249489D01*
X37475769Y-50249489D02*
X37509102Y-50182822D01*
X37509102Y-50182822D02*
X37509102Y-49916155D01*
X37509102Y-49916155D02*
X37475769Y-49849489D01*
X37475769Y-49849489D02*
X37409102Y-49816155D01*
X37409102Y-49816155D02*
X37275769Y-49816155D01*
X37275769Y-49816155D02*
X37209102Y-49849489D01*
X37209102Y-49849489D02*
X37175769Y-49916155D01*
X37175769Y-49916155D02*
X37175769Y-49982822D01*
X37175769Y-49982822D02*
X37509102Y-50049489D01*
X36975769Y-49816155D02*
X36709102Y-49816155D01*
X36875769Y-49582822D02*
X36875769Y-50182822D01*
X36875769Y-50182822D02*
X36842436Y-50249489D01*
X36842436Y-50249489D02*
X36775769Y-50282822D01*
X36775769Y-50282822D02*
X36709102Y-50282822D01*
X36209102Y-50249489D02*
X36275769Y-50282822D01*
X36275769Y-50282822D02*
X36409102Y-50282822D01*
X36409102Y-50282822D02*
X36475769Y-50249489D01*
X36475769Y-50249489D02*
X36509102Y-50182822D01*
X36509102Y-50182822D02*
X36509102Y-49916155D01*
X36509102Y-49916155D02*
X36475769Y-49849489D01*
X36475769Y-49849489D02*
X36409102Y-49816155D01*
X36409102Y-49816155D02*
X36275769Y-49816155D01*
X36275769Y-49816155D02*
X36209102Y-49849489D01*
X36209102Y-49849489D02*
X36175769Y-49916155D01*
X36175769Y-49916155D02*
X36175769Y-49982822D01*
X36175769Y-49982822D02*
X36509102Y-50049489D01*
X35875769Y-50282822D02*
X35875769Y-49816155D01*
X35875769Y-49949489D02*
X35842436Y-49882822D01*
X35842436Y-49882822D02*
X35809102Y-49849489D01*
X35809102Y-49849489D02*
X35742436Y-49816155D01*
X35742436Y-49816155D02*
X35675769Y-49816155D01*
X41275768Y-51409783D02*
X41275768Y-50709783D01*
X41275768Y-50709783D02*
X40875768Y-51409783D01*
X40875768Y-51409783D02*
X40875768Y-50709783D01*
X40275768Y-51376450D02*
X40342435Y-51409783D01*
X40342435Y-51409783D02*
X40475768Y-51409783D01*
X40475768Y-51409783D02*
X40542435Y-51376450D01*
X40542435Y-51376450D02*
X40575768Y-51309783D01*
X40575768Y-51309783D02*
X40575768Y-51043116D01*
X40575768Y-51043116D02*
X40542435Y-50976450D01*
X40542435Y-50976450D02*
X40475768Y-50943116D01*
X40475768Y-50943116D02*
X40342435Y-50943116D01*
X40342435Y-50943116D02*
X40275768Y-50976450D01*
X40275768Y-50976450D02*
X40242435Y-51043116D01*
X40242435Y-51043116D02*
X40242435Y-51109783D01*
X40242435Y-51109783D02*
X40575768Y-51176450D01*
X40009102Y-51409783D02*
X39642435Y-50943116D01*
X40009102Y-50943116D02*
X39642435Y-51409783D01*
X39475768Y-50943116D02*
X39209101Y-50943116D01*
X39375768Y-50709783D02*
X39375768Y-51309783D01*
X39375768Y-51309783D02*
X39342435Y-51376450D01*
X39342435Y-51376450D02*
X39275768Y-51409783D01*
X39275768Y-51409783D02*
X39209101Y-51409783D01*
X38609101Y-50743116D02*
X38675768Y-50709783D01*
X38675768Y-50709783D02*
X38775768Y-50709783D01*
X38775768Y-50709783D02*
X38875768Y-50743116D01*
X38875768Y-50743116D02*
X38942435Y-50809783D01*
X38942435Y-50809783D02*
X38975768Y-50876450D01*
X38975768Y-50876450D02*
X39009101Y-51009783D01*
X39009101Y-51009783D02*
X39009101Y-51109783D01*
X39009101Y-51109783D02*
X38975768Y-51243116D01*
X38975768Y-51243116D02*
X38942435Y-51309783D01*
X38942435Y-51309783D02*
X38875768Y-51376450D01*
X38875768Y-51376450D02*
X38775768Y-51409783D01*
X38775768Y-51409783D02*
X38709101Y-51409783D01*
X38709101Y-51409783D02*
X38609101Y-51376450D01*
X38609101Y-51376450D02*
X38575768Y-51343116D01*
X38575768Y-51343116D02*
X38575768Y-51109783D01*
X38575768Y-51109783D02*
X38709101Y-51109783D01*
X38009101Y-51376450D02*
X38075768Y-51409783D01*
X38075768Y-51409783D02*
X38209101Y-51409783D01*
X38209101Y-51409783D02*
X38275768Y-51376450D01*
X38275768Y-51376450D02*
X38309101Y-51309783D01*
X38309101Y-51309783D02*
X38309101Y-51043116D01*
X38309101Y-51043116D02*
X38275768Y-50976450D01*
X38275768Y-50976450D02*
X38209101Y-50943116D01*
X38209101Y-50943116D02*
X38075768Y-50943116D01*
X38075768Y-50943116D02*
X38009101Y-50976450D01*
X38009101Y-50976450D02*
X37975768Y-51043116D01*
X37975768Y-51043116D02*
X37975768Y-51109783D01*
X37975768Y-51109783D02*
X38309101Y-51176450D01*
X37675768Y-50943116D02*
X37675768Y-51409783D01*
X37675768Y-51009783D02*
X37642435Y-50976450D01*
X37642435Y-50976450D02*
X37575768Y-50943116D01*
X37575768Y-50943116D02*
X37475768Y-50943116D01*
X37475768Y-50943116D02*
X37409101Y-50976450D01*
X37409101Y-50976450D02*
X37375768Y-51043116D01*
X37375768Y-51043116D02*
X37375768Y-51409783D01*
D11*
X45384819Y-47261905D02*
X44384819Y-47261905D01*
X44384819Y-47261905D02*
X44384819Y-47500000D01*
X44384819Y-47500000D02*
X44432438Y-47642857D01*
X44432438Y-47642857D02*
X44527676Y-47738095D01*
X44527676Y-47738095D02*
X44622914Y-47785714D01*
X44622914Y-47785714D02*
X44813390Y-47833333D01*
X44813390Y-47833333D02*
X44956247Y-47833333D01*
X44956247Y-47833333D02*
X45146723Y-47785714D01*
X45146723Y-47785714D02*
X45241961Y-47738095D01*
X45241961Y-47738095D02*
X45337200Y-47642857D01*
X45337200Y-47642857D02*
X45384819Y-47500000D01*
X45384819Y-47500000D02*
X45384819Y-47261905D01*
X45384819Y-48785714D02*
X45384819Y-48214286D01*
X45384819Y-48500000D02*
X44384819Y-48500000D01*
X44384819Y-48500000D02*
X44527676Y-48404762D01*
X44527676Y-48404762D02*
X44622914Y-48309524D01*
X44622914Y-48309524D02*
X44670533Y-48214286D01*
D12*
%TO.C,D1*%
X44235000Y-47200000D02*
X44235000Y-49660000D01*
X44235000Y-49660000D02*
X42765000Y-49660000D01*
X42765000Y-49660000D02*
X42765000Y-47200000D01*
%TD*%
M02*
