%TF.GenerationSoftware,KiCad,Pcbnew,9.0.1-9.0.1-0~ubuntu24.04.1*%
%TF.CreationDate,2025-05-06T21:30:46+02:00*%
%TF.ProjectId,led,6c65642e-6b69-4636-9164-5f7063625858,rev?*%
%TF.SameCoordinates,Original*%
%TF.FileFunction,Copper,L2,Bot*%
%TF.FilePolarity,Positive*%
%FSLAX46Y46*%
G04 Gerber Fmt 4.6, Leading zero omitted, Abs format (unit mm)*
G04 Created by KiCad (PCBNEW 9.0.1-9.0.1-0~ubuntu24.04.1) date 2025-05-06 21:30:46*
%MOMM*%
%LPD*%
G01*
G04 APERTURE LIST*
G04 Aperture macros list*
%AMRoundRect*
0 Rectangle with rounded corners*
0 $1 Rounding radius*
0 $2 $3 $4 $5 $6 $7 $8 $9 X,Y pos of 4 corners*
0 Add a 4 corners polygon primitive as box body*
4,1,4,$2,$3,$4,$5,$6,$7,$8,$9,$2,$3,0*
0 Add four circle primitives for the rounded corners*
1,1,$1+$1,$2,$3*
1,1,$1+$1,$4,$5*
1,1,$1+$1,$6,$7*
1,1,$1+$1,$8,$9*
0 Add four rect primitives between the rounded corners*
20,1,$1+$1,$2,$3,$4,$5,0*
20,1,$1+$1,$4,$5,$6,$7,0*
20,1,$1+$1,$6,$7,$8,$9,0*
20,1,$1+$1,$8,$9,$2,$3,0*%
G04 Aperture macros list end*
%TA.AperFunction,ComponentPad*%
%ADD10R,1.700000X1.700000*%
%TD*%
%TA.AperFunction,ComponentPad*%
%ADD11C,1.700000*%
%TD*%
%TA.AperFunction,SMDPad,CuDef*%
%ADD12RoundRect,0.237500X0.237500X-0.287500X0.237500X0.287500X-0.237500X0.287500X-0.237500X-0.287500X0*%
%TD*%
%TA.AperFunction,ViaPad*%
%ADD13C,0.600000*%
%TD*%
%TA.AperFunction,Conductor*%
%ADD14C,0.500000*%
%TD*%
G04 APERTURE END LIST*
D10*
%TO.P,J1,1,Pin_1*%
%TO.N,+5V*%
X30725000Y-46725000D03*
D11*
%TO.P,J1,2,Pin_2*%
%TO.N,Net-(J1-Pin_2)*%
X33265000Y-46725000D03*
%TO.P,J1,3,Pin_3*%
%TO.N,GND*%
X30725000Y-49265000D03*
%TO.P,J1,4,Pin_4*%
%TO.N,unconnected-(J1-Pin_4-Pad4)*%
X33265000Y-49265000D03*
%TD*%
D12*
%TO.P,D1,1,K*%
%TO.N,Net-(D1-K)*%
X43500000Y-48875000D03*
%TO.P,D1,2,A*%
%TO.N,Net-(D1-A)*%
X43500000Y-47125000D03*
%TD*%
D13*
%TO.N,Net-(D1-K)*%
X41000000Y-49000000D03*
%TO.N,Net-(D1-A)*%
X41000000Y-46000000D03*
%TD*%
D14*
%TO.N,Net-(D1-K)*%
X43500000Y-48875000D02*
X41125000Y-48875000D01*
X41125000Y-48875000D02*
X41000000Y-49000000D01*
%TO.N,Net-(D1-A)*%
X43500000Y-47000000D02*
X42500000Y-46000000D01*
X43500000Y-47125000D02*
X43500000Y-47000000D01*
X42500000Y-46000000D02*
X41000000Y-46000000D01*
%TD*%
%TA.AperFunction,Conductor*%
%TO.N,GND*%
G36*
X32243418Y-47620417D02*
G01*
X32271673Y-47641569D01*
X32385213Y-47755109D01*
X32557182Y-47880050D01*
X32565946Y-47884516D01*
X32616742Y-47932491D01*
X32633536Y-48000312D01*
X32610998Y-48066447D01*
X32565946Y-48105484D01*
X32557182Y-48109949D01*
X32385213Y-48234890D01*
X32234890Y-48385213D01*
X32109949Y-48557182D01*
X32105202Y-48566499D01*
X32057227Y-48617293D01*
X31989405Y-48634087D01*
X31923271Y-48611548D01*
X31884234Y-48566495D01*
X31879626Y-48557452D01*
X31840270Y-48503282D01*
X31840269Y-48503282D01*
X31207962Y-49135590D01*
X31190925Y-49072007D01*
X31125099Y-48957993D01*
X31032007Y-48864901D01*
X30917993Y-48799075D01*
X30854409Y-48782037D01*
X31524627Y-48111818D01*
X31585950Y-48078333D01*
X31612307Y-48075499D01*
X31622872Y-48075499D01*
X31682483Y-48069091D01*
X31817331Y-48018796D01*
X31932546Y-47932546D01*
X32018796Y-47817331D01*
X32067810Y-47685916D01*
X32109681Y-47629984D01*
X32175145Y-47605566D01*
X32243418Y-47620417D01*
G37*
%TD.AperFunction*%
%TA.AperFunction,Conductor*%
G36*
X46942539Y-44520185D02*
G01*
X46988294Y-44572989D01*
X46999500Y-44624500D01*
X46999500Y-51375500D01*
X46979815Y-51442539D01*
X46927011Y-51488294D01*
X46875500Y-51499500D01*
X29124500Y-51499500D01*
X29057461Y-51479815D01*
X29011706Y-51427011D01*
X29000500Y-51375500D01*
X29000500Y-45827135D01*
X29374500Y-45827135D01*
X29374500Y-47622870D01*
X29374501Y-47622876D01*
X29380908Y-47682483D01*
X29431202Y-47817328D01*
X29431206Y-47817335D01*
X29517452Y-47932544D01*
X29517455Y-47932547D01*
X29632664Y-48018793D01*
X29632671Y-48018797D01*
X29677618Y-48035561D01*
X29767517Y-48069091D01*
X29827127Y-48075500D01*
X29837685Y-48075499D01*
X29904723Y-48095179D01*
X29925372Y-48111818D01*
X30595591Y-48782037D01*
X30532007Y-48799075D01*
X30417993Y-48864901D01*
X30324901Y-48957993D01*
X30259075Y-49072007D01*
X30242037Y-49135591D01*
X29609728Y-48503282D01*
X29609727Y-48503282D01*
X29570380Y-48557439D01*
X29473904Y-48746782D01*
X29408242Y-48948869D01*
X29408242Y-48948872D01*
X29375000Y-49158753D01*
X29375000Y-49371246D01*
X29408242Y-49581127D01*
X29408242Y-49581130D01*
X29473904Y-49783217D01*
X29570375Y-49972550D01*
X29609728Y-50026716D01*
X30242037Y-49394408D01*
X30259075Y-49457993D01*
X30324901Y-49572007D01*
X30417993Y-49665099D01*
X30532007Y-49730925D01*
X30595590Y-49747962D01*
X29963282Y-50380269D01*
X29963282Y-50380270D01*
X30017449Y-50419624D01*
X30206782Y-50516095D01*
X30408870Y-50581757D01*
X30618754Y-50615000D01*
X30831246Y-50615000D01*
X31041127Y-50581757D01*
X31041130Y-50581757D01*
X31243217Y-50516095D01*
X31432554Y-50419622D01*
X31486716Y-50380270D01*
X31486717Y-50380270D01*
X30854408Y-49747962D01*
X30917993Y-49730925D01*
X31032007Y-49665099D01*
X31125099Y-49572007D01*
X31190925Y-49457993D01*
X31207962Y-49394409D01*
X31840270Y-50026717D01*
X31840270Y-50026716D01*
X31879622Y-49972555D01*
X31884232Y-49963507D01*
X31932205Y-49912709D01*
X32000025Y-49895912D01*
X32066161Y-49918447D01*
X32105204Y-49963504D01*
X32109949Y-49972817D01*
X32234890Y-50144786D01*
X32385213Y-50295109D01*
X32557179Y-50420048D01*
X32557181Y-50420049D01*
X32557184Y-50420051D01*
X32746588Y-50516557D01*
X32948757Y-50582246D01*
X33158713Y-50615500D01*
X33158714Y-50615500D01*
X33371286Y-50615500D01*
X33371287Y-50615500D01*
X33581243Y-50582246D01*
X33783412Y-50516557D01*
X33972816Y-50420051D01*
X34027572Y-50380269D01*
X34144786Y-50295109D01*
X34144788Y-50295106D01*
X34144792Y-50295104D01*
X34295104Y-50144792D01*
X34295106Y-50144788D01*
X34295109Y-50144786D01*
X34420048Y-49972820D01*
X34420050Y-49972817D01*
X34420051Y-49972816D01*
X34516557Y-49783412D01*
X34582246Y-49581243D01*
X34615500Y-49371287D01*
X34615500Y-49158713D01*
X34582246Y-48948757D01*
X34516557Y-48746588D01*
X34420051Y-48557184D01*
X34420049Y-48557181D01*
X34420048Y-48557179D01*
X34295109Y-48385213D01*
X34144786Y-48234890D01*
X33972820Y-48109951D01*
X33972115Y-48109591D01*
X33964054Y-48105485D01*
X33913259Y-48057512D01*
X33896463Y-47989692D01*
X33918999Y-47923556D01*
X33964054Y-47884515D01*
X33972816Y-47880051D01*
X34059138Y-47817335D01*
X34144786Y-47755109D01*
X34144788Y-47755106D01*
X34144792Y-47755104D01*
X34295104Y-47604792D01*
X34295106Y-47604788D01*
X34295109Y-47604786D01*
X34420048Y-47432820D01*
X34420047Y-47432820D01*
X34420051Y-47432816D01*
X34516557Y-47243412D01*
X34582246Y-47041243D01*
X34615500Y-46831287D01*
X34615500Y-46618713D01*
X34582246Y-46408757D01*
X34516557Y-46206588D01*
X34420051Y-46017184D01*
X34398811Y-45987950D01*
X34398811Y-45987948D01*
X34350282Y-45921153D01*
X40199500Y-45921153D01*
X40199500Y-46078846D01*
X40230261Y-46233489D01*
X40230264Y-46233501D01*
X40290602Y-46379172D01*
X40290609Y-46379185D01*
X40378210Y-46510288D01*
X40378213Y-46510292D01*
X40489707Y-46621786D01*
X40489711Y-46621789D01*
X40620814Y-46709390D01*
X40620827Y-46709397D01*
X40720060Y-46750500D01*
X40766503Y-46769737D01*
X40859946Y-46788324D01*
X40921153Y-46800499D01*
X40921156Y-46800500D01*
X40921158Y-46800500D01*
X41078844Y-46800500D01*
X41078845Y-46800499D01*
X41155152Y-46785320D01*
X41233488Y-46769739D01*
X41233489Y-46769738D01*
X41233497Y-46769737D01*
X41257155Y-46759937D01*
X41304604Y-46750500D01*
X42137770Y-46750500D01*
X42204809Y-46770185D01*
X42225451Y-46786819D01*
X42488181Y-47049548D01*
X42521666Y-47110871D01*
X42524500Y-47137229D01*
X42524500Y-47461668D01*
X42524501Y-47461687D01*
X42534825Y-47562752D01*
X42589092Y-47726515D01*
X42589093Y-47726518D01*
X42679661Y-47873351D01*
X42718629Y-47912319D01*
X42722967Y-47920264D01*
X42730215Y-47925690D01*
X42739449Y-47950449D01*
X42752114Y-47973642D01*
X42751468Y-47982671D01*
X42754632Y-47991154D01*
X42749015Y-48016974D01*
X42747130Y-48043334D01*
X42741311Y-48052387D01*
X42739780Y-48059427D01*
X42718629Y-48087681D01*
X42718129Y-48088181D01*
X42656806Y-48121666D01*
X42630448Y-48124500D01*
X41051076Y-48124500D01*
X41022242Y-48130234D01*
X41022243Y-48130235D01*
X40906093Y-48153339D01*
X40906083Y-48153342D01*
X40826081Y-48186479D01*
X40826082Y-48186480D01*
X40769504Y-48209916D01*
X40769502Y-48209917D01*
X40732122Y-48234894D01*
X40732116Y-48234899D01*
X40704431Y-48253395D01*
X40683002Y-48264848D01*
X40620824Y-48290604D01*
X40620818Y-48290607D01*
X40489715Y-48378207D01*
X40489707Y-48378213D01*
X40378213Y-48489707D01*
X40378210Y-48489711D01*
X40290609Y-48620814D01*
X40290602Y-48620827D01*
X40230264Y-48766498D01*
X40230261Y-48766510D01*
X40199500Y-48921153D01*
X40199500Y-49078846D01*
X40230261Y-49233489D01*
X40230264Y-49233501D01*
X40290602Y-49379172D01*
X40290609Y-49379185D01*
X40378210Y-49510288D01*
X40378213Y-49510292D01*
X40489707Y-49621786D01*
X40489711Y-49621789D01*
X40620814Y-49709390D01*
X40620827Y-49709397D01*
X40755067Y-49765000D01*
X40766503Y-49769737D01*
X40921153Y-49800499D01*
X40921156Y-49800500D01*
X40921158Y-49800500D01*
X41078844Y-49800500D01*
X41078845Y-49800499D01*
X41233497Y-49769737D01*
X41379179Y-49709394D01*
X41473459Y-49646398D01*
X41540136Y-49625520D01*
X41542350Y-49625500D01*
X42630448Y-49625500D01*
X42697487Y-49645185D01*
X42718129Y-49661819D01*
X42801650Y-49745340D01*
X42948484Y-49835908D01*
X43112247Y-49890174D01*
X43213323Y-49900500D01*
X43786676Y-49900499D01*
X43786684Y-49900498D01*
X43786687Y-49900498D01*
X43842030Y-49894844D01*
X43887753Y-49890174D01*
X44051516Y-49835908D01*
X44198350Y-49745340D01*
X44320340Y-49623350D01*
X44410908Y-49476516D01*
X44465174Y-49312753D01*
X44475500Y-49211677D01*
X44475499Y-48538324D01*
X44471919Y-48503282D01*
X44465174Y-48437247D01*
X44410908Y-48273484D01*
X44320340Y-48126650D01*
X44281371Y-48087681D01*
X44247886Y-48026358D01*
X44252870Y-47956666D01*
X44281371Y-47912319D01*
X44320340Y-47873350D01*
X44410908Y-47726516D01*
X44465174Y-47562753D01*
X44475500Y-47461677D01*
X44475499Y-46788324D01*
X44473600Y-46769738D01*
X44465174Y-46687247D01*
X44442464Y-46618713D01*
X44410908Y-46523484D01*
X44320340Y-46376650D01*
X44198350Y-46254660D01*
X44051516Y-46164092D01*
X43887753Y-46109826D01*
X43887751Y-46109825D01*
X43786684Y-46099500D01*
X43786677Y-46099500D01*
X43712229Y-46099500D01*
X43645190Y-46079815D01*
X43624548Y-46063181D01*
X42978421Y-45417052D01*
X42978414Y-45417046D01*
X42904729Y-45367812D01*
X42904729Y-45367813D01*
X42855491Y-45334913D01*
X42718917Y-45278343D01*
X42718907Y-45278340D01*
X42573920Y-45249500D01*
X42573918Y-45249500D01*
X41304604Y-45249500D01*
X41257155Y-45240062D01*
X41233497Y-45230263D01*
X41233493Y-45230262D01*
X41233488Y-45230260D01*
X41078845Y-45199500D01*
X41078842Y-45199500D01*
X40921158Y-45199500D01*
X40921155Y-45199500D01*
X40766510Y-45230261D01*
X40766498Y-45230264D01*
X40620827Y-45290602D01*
X40620814Y-45290609D01*
X40489711Y-45378210D01*
X40489707Y-45378213D01*
X40378213Y-45489707D01*
X40378210Y-45489711D01*
X40290609Y-45620814D01*
X40290602Y-45620827D01*
X40230264Y-45766498D01*
X40230261Y-45766510D01*
X40199500Y-45921153D01*
X34350282Y-45921153D01*
X34295109Y-45845214D01*
X34295105Y-45845209D01*
X34144786Y-45694890D01*
X33972820Y-45569951D01*
X33783414Y-45473444D01*
X33783413Y-45473443D01*
X33783412Y-45473443D01*
X33581243Y-45407754D01*
X33581241Y-45407753D01*
X33581240Y-45407753D01*
X33419957Y-45382208D01*
X33371287Y-45374500D01*
X33158713Y-45374500D01*
X33110042Y-45382208D01*
X32948760Y-45407753D01*
X32746585Y-45473444D01*
X32557179Y-45569951D01*
X32385215Y-45694889D01*
X32271673Y-45808431D01*
X32210350Y-45841915D01*
X32140658Y-45836931D01*
X32084725Y-45795059D01*
X32067810Y-45764082D01*
X32018797Y-45632671D01*
X32018793Y-45632664D01*
X31932547Y-45517455D01*
X31932544Y-45517452D01*
X31817335Y-45431206D01*
X31817328Y-45431202D01*
X31682482Y-45380908D01*
X31682483Y-45380908D01*
X31622883Y-45374501D01*
X31622881Y-45374500D01*
X31622873Y-45374500D01*
X31622864Y-45374500D01*
X29827129Y-45374500D01*
X29827123Y-45374501D01*
X29767516Y-45380908D01*
X29632671Y-45431202D01*
X29632664Y-45431206D01*
X29517455Y-45517452D01*
X29517452Y-45517455D01*
X29431206Y-45632664D01*
X29431202Y-45632671D01*
X29380908Y-45767517D01*
X29374501Y-45827116D01*
X29374500Y-45827135D01*
X29000500Y-45827135D01*
X29000500Y-44624500D01*
X29020185Y-44557461D01*
X29072989Y-44511706D01*
X29124500Y-44500500D01*
X29434108Y-44500500D01*
X46875500Y-44500500D01*
X46942539Y-44520185D01*
G37*
%TD.AperFunction*%
%TD*%
M02*
